<?xml version="1.0" encoding="iso-8859-1"?>
<svg fill="#ffffff" height="80px" width="80px" xmlns="http://www.w3.org/2000/svg" xmlns:xlink="http://www.w3.org/1999/xlink" 
	 viewBox="0 0 470 470" xml:space="preserve">
<g>
	<path d="M91,286.523c-4.135,0-7.5,3.365-7.5,7.5s3.365,7.5,7.5,7.5s7.5-3.365,7.5-7.5S95.135,286.523,91,286.523z" fill="#ffffff"/>
	<path d="M192,386.523c-4.135,0-7.5,3.365-7.5,7.5s3.365,7.5,7.5,7.5s7.5-3.365,7.5-7.5S196.135,386.523,192,386.523z" fill="#ffffff"/>
	<path d="M222,407.523c-4.135,0-7.5,3.365-7.5,7.5s3.365,7.5,7.5,7.5s7.5-3.365,7.5-7.5S226.135,407.523,222,407.523z" fill="#ffffff"/>
	<path d="M461.318,152.636c-6.82,1.088-13.501,1.64-19.856,1.64c-43.766,0-69.232-25.292-93.861-49.752
		c-20.21-20.072-39.3-39.031-66.007-39.031c-14.453,0-29.736,5.655-46.594,17.264c-16.857-11.609-32.141-17.264-46.594-17.264
		c-26.71,0-45.803,18.96-66.017,39.033c-24.628,24.457-50.095,49.747-93.852,49.75c-6.353,0-13.034-0.551-19.856-1.64
		c-2.688-0.43-5.392,0.63-7.074,2.766s-2.077,5.015-1.031,7.525c4.899,11.757,12.832,22.317,22.889,31.172
		C21.176,200.817,20,207.821,20,215c0,20.159,9.488,39.169,25.225,51.388c-10.597,15.061-16.014,33.163-15.37,51.801
		c0.746,21.568,9.565,41.855,24.833,57.124c21.033,21.033,51.904,29.428,80.516,22.414C149.204,440.652,189.183,470,235,470
		c45.816,0,85.796-29.347,99.796-72.273c23.099,5.673,47.912,1.414,67.756-11.92c3.438-2.31,4.353-6.97,2.042-10.408
		c-0.068-0.102-0.145-0.194-0.218-0.292c-2.372-3.19-6.854-3.991-10.189-1.75c-18.144,12.192-41.34,15.167-62.053,7.956
		c-1.992-0.694-4.187-0.516-6.043,0.491c-1.855,1.007-3.2,2.749-3.705,4.798C312.466,426.874,276.531,455,235,455
		c-41.532,0-77.465-28.126-87.385-68.399c-0.505-2.049-1.85-3.792-3.706-4.798c-1.857-1.007-4.052-1.185-6.042-0.491
		c-25.219,8.78-53.705,2.261-72.572-16.606c-25.767-25.767-27.329-67.554-3.556-95.131c1.455-1.688,2.084-3.935,1.717-6.132
		c-0.367-2.198-1.692-4.119-3.616-5.242C44.518,249.255,35,232.702,35,215c0-3.826,0.443-7.584,1.29-11.252
		c18.437,11.798,41.378,18.752,65.261,18.752c14.66,0,32.514-2.463,52.237-10.267c10.831,35.228,43.611,59.945,81.212,59.945
		c37.628,0,70.429-24.753,81.236-60.023c17.245,6.867,34.742,10.345,52.212,10.345c23.883,0,46.824-6.953,65.261-18.752
		c0.848,3.667,1.29,7.426,1.29,11.252c0,17.702-9.518,34.255-24.839,43.201c-1.925,1.124-3.249,3.044-3.616,5.242
		c-0.367,2.198,0.262,4.445,1.717,6.132c20.501,23.782,22.599,58.578,5.101,84.617c-2.241,3.337-1.439,7.818,1.753,10.191
		c0.097,0.072,0.189,0.149,0.29,0.217c1.283,0.863,2.737,1.276,4.176,1.276c2.414,0,4.784-1.164,6.232-3.318
		c19.684-29.294,18.954-67.708-1.04-96.168C440.509,254.171,450,235.159,450,215c0-7.179-1.176-14.183-3.466-20.9
		c10.057-8.856,17.99-19.415,22.889-31.172c1.046-2.51,0.651-5.389-1.03-7.525C466.709,153.266,463.998,152.208,461.318,152.636z
		 M235,257.178c-31.608,0-59.087-21.199-67.417-51.167c21.278-10.788,44.243-28.036,67.419-54.978
		c20.228,23.484,42.033,41.486,64.92,53.579c0.84,0.444,1.682,0.863,2.524,1.291C294.151,235.927,266.645,257.178,235,257.178z
		 M368.448,207.5c-31.234,0-78.73-12.645-127.625-72.888c-1.424-1.755-3.563-2.774-5.823-2.774s-4.399,1.019-5.823,2.773
		c-48.895,60.243-96.391,72.888-127.625,72.888c-38.029,0-66.345-18.271-80.497-38.441c2.528,0.145,5.026,0.217,7.483,0.217
		c49.94-0.003,78.884-28.746,104.421-54.106c18.737-18.607,34.919-34.677,55.447-34.677c12.394,0,26.178,5.728,42.14,17.511
		c2.648,1.955,6.261,1.954,8.908,0c15.962-11.783,29.746-17.511,42.14-17.511c20.523,0,36.703,16.068,55.438,34.674
		c25.537,25.362,54.482,54.109,104.431,54.109c2.458,0,4.955-0.073,7.483-0.218C434.794,189.228,406.478,207.5,368.448,207.5z" fill="#ffffff"/>
	<path d="M23.74,137.549c1.4,1.161,3.096,1.727,4.783,1.726c2.155,0,4.294-0.924,5.778-2.713c2.644-3.189,2.202-7.917-0.987-10.561
		C21.162,115.926,15,105.496,15,95c0-38.635,88.401-80,220-80s220,41.365,220,80c0,10.496-6.161,20.926-18.313,31.002
		c-3.188,2.644-3.63,7.372-0.986,10.561c2.645,3.189,7.373,3.63,10.561,0.986C462.013,124.488,470,110.173,470,95
		c0-26.694-25.371-51.153-71.441-68.872C354.752,9.279,296.665,0,235,0C173.334,0,115.248,9.279,71.441,26.128
		C25.372,43.847,0,68.306,0,95C0,110.173,7.987,124.488,23.74,137.549z" fill="#ffffff"/>
</g>
</svg>